HIERARCHY
ROOT Hips
{
  OFFSET 1.44925e-005 102.336 -0.101585
  CHANNELS 6 Xposition Yposition Zposition Zrotation Xrotation Yrotation
  JOINT LeftUpLeg
  {
    OFFSET 8.9458 -8.66707 0.101652
    CHANNELS 3 Zrotation Xrotation Yrotation
    JOINT LeftLeg
    {
      OFFSET 0 -44.4227 1.3727
      CHANNELS 3 Zrotation Xrotation Yrotation
      JOINT LeftFoot
      {
        OFFSET -0.253549 -42.0924 -1.46059
        CHANNELS 3 Zrotation Xrotation Yrotation
        JOINT LeftToes
        {
          OFFSET -0.04 -4.41509 8.4991
          CHANNELS 3 Zrotation Xrotation Yrotation
          End Site
          {
            OFFSET 0.08 -0.047448 9.77979
          }
        }
      }
    }
  }
  JOINT Spine
  {
    OFFSET 0 11.8905 0
    CHANNELS 3 Zrotation Xrotation Yrotation
    JOINT Spine1
    {
      OFFSET 0 25.6574 0.127663
      CHANNELS 3 Zrotation Xrotation Yrotation
      JOINT RightShoulder
      {
        OFFSET -8.99 -0.362252 -0.22
        CHANNELS 3 Zrotation Xrotation Yrotation
        JOINT RightArm
        {
          OFFSET -10.2827 -0.00338 0.322123
          CHANNELS 3 Zrotation Xrotation Yrotation
          JOINT RightForeArm
          {
            OFFSET -26.364 0.099144 -1.42434
            CHANNELS 3 Zrotation Xrotation Yrotation
            JOINT RightHand
            {
              OFFSET -22.0324 0.085362 1.02216
              CHANNELS 3 Zrotation Xrotation Yrotation
              End Site
              {
                OFFSET -13.3284 -0.6 1.50291
              }
            }
          }
        }
      }
      JOINT LeftShoulder1
      {
        OFFSET 8.99 -0.362252 -0.22
        CHANNELS 3 Zrotation Xrotation Yrotation
        JOINT LeftArm
        {
          OFFSET 10.2827 -0.00337999 0.322123
          CHANNELS 3 Zrotation Xrotation Yrotation
          JOINT LeftForeArm
          {
            OFFSET 26.2597 0.099144 -1.42434
            CHANNELS 3 Zrotation Xrotation Yrotation
            JOINT LeftHand
            {
              OFFSET 22.0902 0.085362 1.02216
              CHANNELS 3 Zrotation Xrotation Yrotation
              End Site
              {
                OFFSET 13.419 -0.6 1.50291
              }
            }
          }
        }
      }
      JOINT Head
      {
        OFFSET 0 8.73416 0.011341
        CHANNELS 3 Zrotation Xrotation Yrotation
        End Site
        {
          OFFSET -0.29 12.7742 2.51395
        }
      }
    }
  }
  JOINT RightUpLeg
  {
    OFFSET -8.9458 -8.66707 0.101652
    CHANNELS 3 Zrotation Xrotation Yrotation
    JOINT RightLeg
    {
      OFFSET 0 -44.4227 1.3727
      CHANNELS 3 Zrotation Xrotation Yrotation
      JOINT RightFoot
      {
        OFFSET 0.253549 -42.0924 -1.46059
        CHANNELS 3 Zrotation Xrotation Yrotation
        JOINT RightToes
        {
          OFFSET 0.04 -4.41509 8.4991
          CHANNELS 3 Zrotation Xrotation Yrotation
          End Site
          {
            OFFSET -0.08 -0.137448 9.77979
          }
        }
      }
    }
  }
}
MOTION
Frames:	15
Frame Time:	0.0333333
195.317 103.184 8.12448 -2.45475 -0.236696 -91.2479 -0.897707 -1.55602 1.66997 -0.416845 8.35305 18.4399 -2.5534 -9.22844 0.00379178 -1.28597e-009 8.75253e-006 -1.47385e-008 -0.270467 8.11742 -0.475253 0.64781 -3.02963 -0.563212 37.3127 1.72362 -0.0378166 41.518 -16.2244 6.04959 7.6825 38.9956 8.8587 -7.96161 9.64445 -1.38775 -44.1993 3.57685 -3.53117 -28.7808 -10.9565 -1.18322 -5.34959 37.131 -13.6054 5.82328 9.61819 -0.917488 1.55175 -0.670973 -2.15192 -1.38466 -1.86122 -4.01426 0.417907 10.011 -11.0907 3.87329 -10.7803 -0.0777655 0.0462048 0.000530889 0.662642 
195.331 103.184 8.13347 -2.45627 -0.227004 -91.2647 -0.896729 -1.56671 1.67082 -0.414685 8.36605 18.4405 -2.54983 -9.22738 0.00379177 -1.28597e-009 8.75253e-006 -1.47385e-008 -0.173445 8.08077 -0.463033 0.445079 -3.06219 -0.514269 37.6408 1.73137 -0.0470757 41.2581 -16.272 6.03096 7.69388 38.9735 8.85036 -7.90324 9.64726 -1.40059 -43.9828 3.53836 -3.4882 -28.9277 -11.335 -1.30836 -5.48469 37.5908 -13.3393 5.82328 9.61819 -0.917488 1.69205 0.139961 -1.2848 -1.39624 -1.87012 -4.03559 0.444407 10.0099 -11.0544 3.87305 -10.768 -0.0777623 0.0462048 0.000530889 0.662642 
195.354 103.184 8.15278 -2.44381 -0.219639 -91.255 -0.901256 -1.60209 1.66252 -0.412991 8.37875 18.4411 -2.53559 -9.22297 0.00379172 -1.28597e-009 8.75253e-006 -1.47385e-008 -0.0747255 8.05718 -0.446024 0.249482 -3.14623 -0.461365 37.9994 1.73857 -0.059818 40.9769 -16.3879 5.9796 7.54542 39.3361 8.96114 -7.40904 9.65647 -1.25738 -43.7405 3.49525 -3.43955 -29.104 -11.6228 -1.43615 -5.59939 37.9859 -13.1145 5.82328 9.61819 -0.917488 1.81911 1.24146 -0.079059 -1.41684 -1.88921 -4.06453 0.475532 9.99771 -11.0364 3.87722 -10.7576 -0.0777596 0.0462048 0.000530889 0.662642 
195.373 103.184 8.1784 -2.41754 -0.223887 -91.2012 -0.934822 -1.65433 1.61165 -0.388358 8.38831 18.4429 -2.53894 -9.217 0.00379166 -1.28597e-009 8.75253e-006 -1.47385e-008 -0.0474483 8.08111 -0.457471 0.223664 -3.26919 -0.467418 38.0805 1.74001 -0.06533 40.9579 -16.4219 5.93177 7.32834 39.7479 9.15033 -6.90075 9.66873 -1.14739 -43.675 3.4828 -3.42469 -29.1493 -11.4388 -1.39831 -5.54777 37.845 -13.2094 5.82328 9.61819 -0.917488 1.7492 1.83143 0.514672 -1.44165 -1.91289 -4.08656 0.486954 9.97532 -11.068 3.90059 -10.7497 -0.0777576 0.0462048 0.000530889 0.662642 
195.387 103.184 8.20301 -2.40838 -0.227864 -91.1451 -0.976199 -1.68734 1.54958 -0.347783 8.40466 18.4469 -2.55879 -9.21089 0.00379159 -1.28597e-009 8.75253e-006 -1.47385e-008 -0.0196176 8.18157 -0.503386 0.24021 -3.4458 -0.51528 38.0009 1.74136 -0.0683968 41.114 -16.1621 5.9077 7.3224 39.3058 9.27227 -7.08364 9.67764 -1.43401 -43.71 3.49152 -3.43674 -29.099 -11.0949 -1.2216 -5.41623 37.4796 -13.4473 5.82328 9.61819 -0.917488 1.60973 1.58709 0.415073 -1.45651 -1.921 -4.09529 0.47869 9.96633 -11.1147 3.93227 -10.7423 -0.0777557 0.0462048 0.000530889 0.662642 
195.403 103.183 8.21811 -2.43472 -0.223838 -91.1198 -0.98648 -1.692 1.53724 -0.337981 8.44957 18.4334 -2.55779 -9.22292 0.00379172 -1.28597e-009 8.75253e-006 -1.47385e-008 0.0805404 8.36299 -0.55475 0.14068 -3.67899 -0.547623 38.0167 1.74255 -0.0705538 41.1791 -15.6537 5.8763 7.51233 38.0842 9.33734 -7.78329 9.68542 -1.98344 -43.6962 3.49612 -3.44794 -29.057 -10.9507 -1.05163 -5.34483 37.3023 -13.5686 5.82328 9.61819 -0.917488 1.504 1.2269 0.232094 -1.45904 -1.90757 -4.10099 0.470697 9.98899 -11.136 3.95426 -10.7575 -0.0777596 0.0462048 0.000530889 0.662642 
195.421 103.176 8.22244 -2.47518 -0.219282 -91.1043 -0.965987 -1.70462 1.57445 -0.368918 8.54166 18.3786 -2.53679 -9.26767 0.0037922 -1.28597e-009 8.75253e-006 -1.47385e-008 0.216202 8.57821 -0.588675 -0.0476373 -3.93746 -0.547414 38.1869 1.74349 -0.0719265 41.0522 -15.1797 5.79338 7.59354 37.2051 9.47501 -8.16547 9.69293 -2.28939 -43.6154 3.48725 -3.44251 -29.0516 -10.9122 -0.944533 -5.35882 37.2263 -13.5687 5.82328 9.61819 -0.917488 1.5381 0.991682 0.27246 -1.46976 -1.89782 -4.12834 0.488972 10.0492 -11.132 3.97627 -10.8048 -0.0777718 0.0462048 0.000530889 0.662642 
195.436 103.167 8.2238 -2.50036 -0.21885 -91.0625 -0.95122 -1.75147 1.59731 -0.390495 8.66847 18.3113 -2.54184 -9.32952 0.00341505 -1.28597e-009 8.75253e-006 -1.47385e-008 0.287141 8.74168 -0.608029 -0.150221 -4.1413 -0.548767 38.3371 1.74404 -0.0726403 40.8972 -14.9252 5.69005 7.4697 37.2007 9.66802 -7.98884 9.6936 -2.21833 -43.5688 3.4784 -3.43194 -29.0448 -10.7979 -0.852135 -5.40788 37.0336 -13.5573 5.82328 9.61819 -0.917488 1.57639 0.895777 0.294003 -1.49635 -1.91282 -4.17833 0.532234 10.1337 -11.1374 4.01255 -10.8571 -0.0777854 0.0462048 0.000530889 0.662642 
195.446 103.159 8.22877 -2.50608 -0.215402 -90.9962 -0.957735 -1.81665 1.5746 -0.370614 8.79259 18.2671 -2.58233 -9.37925 0.00210959 -1.28597e-009 8.75253e-006 -1.47385e-008 0.24263 8.75905 -0.616169 -0.0508748 -4.15118 -0.574094 38.3004 1.74411 -0.0728205 40.9123 -14.8996 5.68629 7.35438 37.5501 9.74451 -7.75814 9.69111 -2.06729 -43.6448 3.48569 -3.43497 -28.989 -10.7295 -0.798391 -5.46178 36.8832 -13.5306 5.82328 9.61819 -0.917488 1.50259 0.68095 0.211804 -1.51329 -1.94199 -4.21186 0.563451 10.2119 -11.1801 4.05161 -10.8977 -0.0772123 0.0462048 0.000530889 0.662642 
195.452 103.154 8.23271 -2.50221 -0.209129 -90.9369 -0.967455 -1.87117 1.54267 -0.341855 8.8806 18.2397 -2.61456 -9.40905 0.00137401 -1.28597e-009 8.75253e-006 -1.47385e-008 0.148068 8.59668 -0.609143 0.143311 -3.89008 -0.599986 38.139 1.74348 -0.0725925 41.076 -15.1032 5.84859 7.37377 37.8931 9.62024 -7.69914 9.68998 -2.02839 -43.8004 3.50545 -3.45076 -28.8884 -10.8261 -0.865966 -5.47534 36.9978 -13.4884 5.82328 9.61819 -0.917488 1.36762 0.484674 0.327326 -1.5029 -1.9683 -4.19949 0.55334 10.2644 -11.2502 4.08509 -10.9413 -0.0752331 0.0462048 0.000530889 0.662642 
195.448 103.15 8.23293 -2.49743 -0.209289 -90.9049 -0.969242 -1.89356 1.53531 -0.337198 8.91632 18.2129 -2.61678 -9.43057 0.000972901 -1.28597e-009 8.75253e-006 -1.47385e-008 0.135286 8.35427 -0.597958 0.187058 -3.50891 -0.595246 38.0755 1.74095 -0.0720816 41.1852 -15.439 6.06549 7.4195 38.3535 9.42351 -7.57273 9.68834 -1.98487 -43.8791 3.51595 -3.4597 -28.825 -10.9138 -0.992319 -5.37533 37.1931 -13.5558 5.82328 9.61819 -0.917488 1.29066 0.551497 0.659215 -1.48378 -1.98359 -4.16393 0.518489 10.2975 -11.3094 4.12231 -10.9824 -0.0741247 0.0462048 0.000530889 0.662642 
195.426 103.148 8.22858 -2.50065 -0.214802 -90.8958 -0.970612 -1.87066 1.54281 -0.341095 8.90378 18.1953 -2.61149 -9.44893 0.000817597 -1.28597e-009 8.75253e-006 -1.47385e-008 0.237527 8.17526 -0.597172 0.0270955 -3.24101 -0.564808 38.1649 1.73724 -0.0714132 41.1542 -15.626 6.18174 7.45223 38.6642 9.29785 -7.40794 9.68673 -1.89549 -43.8247 3.50888 -3.45297 -28.8499 -10.8665 -1.01835 -5.19767 37.1844 -13.7522 5.82328 9.61819 -0.917488 1.26196 0.435811 0.7396 -1.47475 -1.97534 -4.14212 0.492912 10.3173 -11.3338 4.14981 -10.9954 -0.0734368 0.0462048 0.000530889 0.662642 
195.391 103.148 8.22283 -2.51003 -0.217863 -90.8996 -0.972796 -1.82183 1.5496 -0.336865 8.87267 18.1951 -2.61746 -9.46071 0.000819373 -1.28597e-009 8.75253e-006 -1.47385e-008 0.319612 8.07595 -0.588703 -0.0803146 -3.10192 -0.535648 38.1755 1.7331 -0.0705924 41.1523 -15.5533 6.20991 7.57171 38.3602 9.22069 -7.522 9.68436 -1.92169 -43.8136 3.50646 -3.45079 -28.8623 -10.8608 -0.95689 -5.1165 37.0882 -13.8557 5.82328 9.61819 -0.917488 1.09594 -0.127608 0.470997 -1.4698 -1.94753 -4.13501 0.481906 10.3259 -11.3304 4.14032 -11.0022 -0.073016 0.0462048 0.000530889 0.662642 
195.361 103.148 8.21625 -2.50712 -0.225643 -90.9147 -0.977682 -1.79403 1.55255 -0.335984 8.85442 18.2093 -2.63456 -9.46722 0.000889482 -1.28597e-009 8.75253e-006 -1.47385e-008 0.268821 7.98979 -0.543797 0.0464859 -2.97287 -0.511721 37.964 1.72941 -0.0681202 41.3072 -15.5073 6.25271 7.7389 37.8267 9.11973 -7.83818 9.68129 -2.07142 -43.9945 3.52531 -3.46073 -28.7435 -11.0099 -0.957598 -5.20828 37.1625 -13.7317 5.82328 9.61819 -0.917488 0.796763 -0.507295 0.529382 -1.46956 -1.94345 -4.13002 0.471511 10.3497 -11.3096 4.12144 -11.0425 -0.0727131 0.0462048 0.000530889 0.662642 
195.339 103.149 8.20718 -2.48858 -0.250208 -90.9378 -0.995501 -1.7945 1.5419 -0.336515 8.84572 18.2413 -2.65562 -9.47104 0.000939167 -1.28597e-009 8.75253e-006 -1.47385e-008 0.155138 7.93874 -0.482443 0.240033 -2.89096 -0.48414 37.7386 1.72703 -0.0668441 41.4628 -15.7198 6.29078 7.77349 37.8743 9.03143 -7.94181 9.67882 -2.13705 -44.2217 3.54736 -3.46995 -28.5734 -11.1121 -1.00482 -5.32531 37.2818 -13.5783 5.82328 9.61819 -0.917488 0.604882 -0.119906 1.25832 -1.48706 -1.98191 -4.13108 0.457533 10.4101 -11.2791 4.14114 -11.0866 -0.0723616 0.0462048 0.000530889 0.662642 
